<svg width="140" height="77" fill="none" xmlns="http://www.w3.org/2000/svg"><path d="M52.808.644c15.843.688 17.603.688 21.124 2.064 6.16 2.751 6.16 2.751 7.04 22.012 0 9.63 0 25.452-.88 35.083V77H52.809l.88-7.567c0-9.63 0-11.006-3.52-11.006h-3.52V77H25.523V65.994c0-6.191 0-15.822.88-22.013 0-6.19.88-13.758.88-17.885v-6.879h-2.64c-.88 0-2.64 0-3.52.688-1.76.688-1.76 2.752-1.76 28.891l-.881 27.516-8.8.688H0V44.669C0 10.274 0 8.211 4.4 4.083 8.803-.044 10.563-.732 52.809.643zm-4.4 20.637c0 .688 0 1.376.88 1.376s1.76-1.376.88-1.376c-.88-.688-1.76-.688-1.76 0z" fill="#FE3C5A"/><path d="M36.606 44.338h11.819v7.59H33.361V33.76h3.245v10.578zM62.1 33.76l-5.203 8.385v9.783H53.65v-9.805l-5.204-8.363h3.415c.074.114.232.364.473.75.242.392.517.85.828 1.376.31.53.64 1.09.99 1.68.345.594.658 1.152.939 1.672h.362c.276-.52.589-1.078.939-1.672l.983-1.68a63.256 63.256 0 011.301-2.126h3.422zm14.916 18.168l-.82-7.456H70.06l-.814 7.456h-8.248l9.387-18.168h5.528l4.576 18.168h-3.474zm-3.57-16.585h-.591a42.49 42.49 0 01-.481 1.747c-.187.62-.402 1.31-.643 2.074l-.924 2.944h4.671l-.93-2.944a79.299 79.299 0 01-.63-2.074 51.226 51.226 0 01-.472-1.747zm19.24 16.83c-4.08 0-6.495-.072-7.244-.216a6.367 6.367 0 01-1.98-.728 4.717 4.717 0 01-1.457-1.323c-.39-3.777-.668-6.066-.835-6.869h3.614c.148.535.483.934 1.005 1.197.518 3.489 2.856 5.233 7.015 5.233.39 0 .756-1.643 1.101-4.928.34-.055.64-.15.902-.283a1.68 1.68 0 00.606-.513c.148-.203.222-.456.222-.758 0-.307-.064-.555-.192-.743a1.238 1.238 0 00-.54-.447 3.038 3.038 0 00-.858-.2 12.47 12.47 0 00-1.108-.045H91.85c-3.888 0-6.157-.047-6.807-.141a5.177 5.177 0 01-1.715-.558 3.19 3.19 0 01-1.212-1.152c-.31-.495-.466-1.145-.466-1.947 0-.729.17-1.356.51-1.881.34-.53.789-.964 1.345-1.301a6.298 6.298 0 011.893-.743c.704-.159 3.02-.238 6.947-.238.799 0 1.553.067 2.262.2.71.134 1.353.357 1.93.67a4.59 4.59 0 011.456 1.248c.399.52.682 1.17.85 1.948h-3.437a1.96 1.96 0 00-.496-.766 2.482 2.482 0 00-.724-.476 3.422 3.422 0 00-.872-.237 6.908 6.908 0 00-.969-.067c-3.99 0-6.243.129-6.755.386-.513.263-.769.637-.769 1.123 0 .56.251.912.754 1.055.508.149 2.846.223 7.014.223h.895c.749 0 1.448.057 2.099.171.65.114 1.217.322 1.7.625a3.2 3.2 0 011.146 1.219c.285.515.428 1.174.428 1.977 0 .778-.165 3.063-.495 6.854a3.937 3.937 0 01-1.338 1.383c-.561.357-1.217.622-1.966.795-.744.169-1.535.253-2.373.253zm7.295-11.73c0-1.21.175-2.248.525-3.115a5.47 5.47 0 011.507-2.148c.656-.565 1.461-.982 2.417-1.25.956-.267 2.043-.4 3.26-.4 1.217 0 3.91.133 8.079.4.961.268 1.771.685 2.432 1.25a5.562 5.562 0 011.507 2.148c.35.867.525 1.905.525 3.115 0 1.209-.175 2.25-.525 3.122-.349 4.098-.852 6.43-1.507 6.995-.661.57-1.471.988-2.432 1.256-4.169.268-6.862.402-8.079.402-1.217 0-2.304-.134-3.26-.402s-1.761-.686-2.417-1.256c-.66-.565-1.162-2.897-1.507-6.995-.35-.872-.525-1.913-.525-3.122zm3.437 0c0 .624.066 1.194.199 1.71.133.515.365.953.695 1.315.325.362.762.642 1.308.84.543.198 1.232.297 2.07.297.838 0 3.134-.099 6.889-.297.552-.198.993-.478 1.323-.84.33-.362.562-.8.695-1.316a6.841 6.841 0 00.199-1.71c0-.634-.066-1.206-.199-1.717a3.047 3.047 0 00-.695-1.308c-.33-.362-.771-.642-1.323-.84-3.755-.198-6.051-.297-6.889-.297-.838 0-1.528.099-2.07.297-.546.198-.983.478-1.308.84-.33.362-.562.798-.695 1.308a6.818 6.818 0 00-.199 1.718zm19.07 11.485V33.76h5.639c.409 1.477.818 2.944 1.227 4.4.414 1.458.843 2.924 1.286 4.401.138.446.274.93.407 1.45.133 3.751.261 5.862.384 6.333h.444l.014-16.584h7.739v18.168h-10.451c-.444-1.477-.867-4.56-1.272-9.248a296.755 296.755 0 00-1.256-4.378 32.177 32.177 0 01-.414-1.472 51.575 51.575 0 01-.384-1.51h-.436v16.608h-2.927z" fill="#000"/></svg>